# xmcd
#
# Track frame offsets:
# 150
# 18605
# 34965
# 47794
# 65889
# 82990
# 98354
# 112498
# 126462
# 143326
# 158834
# 178351
#
# Disc length: 2551 seconds
#
# Revision: 1
# Processed by: cddbd v1.5.2PL0 Copyright (c) Steve Scherf et al.
# Submitted via: CdCzar 6.3b
#
DISCID=ac09f50c
DTITLE=Millers daughter - S Hollywood
DYEAR=2014
DGENRE=country
TTITLE0=Since You Left
TTITLE1=Go If You Go
TTITLE2=Undeniable
TTITLE3=One Way Ticket
TTITLE4=Here I Am
TTITLE5=Love Gets In The way
TTITLE6=Lay Your Head Down
TTITLE7=Rock My Heart
TTITLE8=Should've Stayed Friends
TTITLE9=Blow My stars Out
TTITLE10=So Hollywood
TTITLE11=Falling Apart
EXTD=
EXTT0=
EXTT1=
EXTT2=
EXTT3=
EXTT4=
EXTT5=
EXTT6=
EXTT7=
EXTT8=
EXTT9=
EXTT10=
EXTT11=
PLAYORDER=
